<svg width="55" height="55" viewBox="0 0 55 55" fill="none" xmlns="http://www.w3.org/2000/svg">
<path d="M27.0474 53.0129C12.7292 53.0129 1.08191 41.3656 1.08191 27.0474C1.08191 12.7292 12.7292 1.08191 27.0474 1.08191C41.3656 1.08191 53.0129 12.7292 53.0129 27.0474C53.0129 41.3656 41.3656 53.0129 27.0474 53.0129ZM10.7328 45.6425C15.0925 49.4731 20.8028 51.7958 27.0474 51.7958C33.2903 51.7958 39.0024 49.4731 43.3604 45.6425H43.3435C43.3435 38.3042 38.3718 31.8466 31.2516 29.9381C31.0082 29.8739 30.8324 29.6676 30.8036 29.4191C30.7732 29.1723 30.9017 28.9306 31.1214 28.814C33.958 27.2976 35.7195 24.3596 35.7195 21.1494C35.7195 16.3485 31.8213 12.4418 27.0305 12.4418C22.2397 12.4418 18.3398 16.3485 18.3398 21.1494C18.3398 24.3596 20.1013 27.2976 22.9379 28.814C23.1577 28.9306 23.2844 29.1723 23.2557 29.4191C23.227 29.6659 23.0495 29.8739 22.8094 29.9381C15.7078 31.8399 10.7514 38.2975 10.7514 45.6425H10.7328ZM32.8542 29.1605C39.4689 31.4883 44.089 37.5672 44.5268 44.5505C49.015 40.0691 51.7958 33.8769 51.7958 27.0474C51.7958 13.4003 40.6945 2.29904 27.0474 2.29904C13.4003 2.29904 2.29904 13.4003 2.29904 27.0474C2.29904 33.8769 5.07985 40.0691 9.56803 44.5505C10.0042 37.5604 14.609 31.4849 21.2035 29.1605C18.6577 27.3111 17.121 24.3494 17.121 21.1494C17.121 15.6774 21.5652 11.2247 27.0271 11.2247C32.4907 11.2247 36.9349 15.6757 36.9349 21.1494C36.9366 24.3494 35.4 27.3111 32.8542 29.1605Z" fill="white"/>
</svg>
